# xmcd
#
# Track frame offsets:
#	150
#	15365
#	31242
#	49015
#	58537
#	72002
#	85470
#	102175
#	113150
#	125435
#	139495
#	149840
#	160387
#	172262
#	184720
#	198702
#	212535
#	225342
#	233620
#	245675
#
# Disc length: 3493 seconds
#
# Revision: 0
# Processed by: cddbd v1.5.2PL0 Copyright (c) Steve Scherf et al.
# Submitted via: audiograbber 1.83.01
#
DISCID=1e0da314
DTITLE=Sklar, Brian - Brian Sklar
DYEAR=1991
DGENRE=Country
TTITLE0=In the movies
TTITLE1=Columbus Station
TTITLE2=It won't be long
TTITLE3=Candy kisses
TTITLE4=Hell or Houston
TTITLE5='57
TTITLE6=Forever amber
TTITLE7=Not tonight
TTITLE8=Ain't no fun to be alone in San Antone
TTITLE9=Old friends
TTITLE10=Big Mammou
TTITLE11=Countryfied
TTITLE12=Cotton-eyed Joe
TTITLE13=Daddy on the radio
TTITLE14=I wanna be a cowboy
TTITLE15=The fiddlin' of Jacques Pierre Bordeaux
TTITLE16=Someone to hold onto
TTITLE17=Red River jig
TTITLE18=Crazy people
TTITLE19=Long black veil
EXTD=
EXTT0=
EXTT1=
EXTT2=
EXTT3=
EXTT4=
EXTT5=
EXTT6=
EXTT7=
EXTT8=
EXTT9=
EXTT10=
EXTT11=
EXTT12=
EXTT13=
EXTT14=
EXTT15=
EXTT16=
EXTT17=
EXTT18=
EXTT19=
PLAYORDER=
